<svg width="596" height="378" viewBox="0 0 596 378" fill="none" xmlns="http://www.w3.org/2000/svg">
<rect width="596" height="378" fill="white"/>
<path d="M50.5408 195.418C48.1623 194.992 46.55 192.883 46.9394 190.709C47.3289 188.534 49.5727 187.117 51.9511 187.543C54.3295 187.969 55.9419 190.077 55.5524 192.251C55.3576 193.339 54.702 194.235 53.7924 194.81C52.8828 195.384 51.7305 195.631 50.5408 195.418Z" fill="#F50606" fill-opacity="0.22"/>
<path fill-rule="evenodd" clip-rule="evenodd" d="M70.2725 196.92C71.8303 188.221 65.3809 179.789 55.8672 178.085C46.3536 176.381 37.3785 182.051 35.8207 190.749C34.2628 199.448 40.7123 207.88 50.2259 209.584C59.7396 211.288 68.7147 205.618 70.2725 196.92ZM42.633 189.938C41.8541 194.287 45.0788 198.503 49.8356 199.355C51.432 199.641 52.9998 199.511 54.4059 199.048L58.4773 204.371C59.1805 205.291 60.5439 205.535 61.5224 204.917C62.501 204.298 62.7242 203.052 62.0211 202.132L57.9496 196.809C58.9168 195.772 59.5975 194.482 59.8589 193.023C60.6378 188.674 57.413 184.457 52.6562 183.605C47.8994 182.754 43.4118 185.589 42.633 189.938Z" fill="#F50606" fill-opacity="0.22"/>
<path fill-rule="evenodd" clip-rule="evenodd" d="M174.207 112.804C175.838 111.255 178.614 111.531 180.406 113.42L196.632 130.518C198.424 132.406 198.554 135.193 196.922 136.741L185.103 147.958C183.471 149.506 180.695 149.231 178.903 147.342L175.302 143.548L174.778 144.442L174.895 146.944C174.936 147.834 174.44 148.583 173.637 148.843C172.833 149.102 171.882 148.82 171.225 148.128L161.49 137.87C160.834 137.178 160.602 136.213 160.903 135.424C161.204 134.636 161.978 134.179 162.865 134.267L165.358 134.515L166.278 134.038L162.677 130.244C160.885 128.355 160.755 125.569 162.387 124.02L174.207 112.804ZM173.229 132.486C173.205 132.46 173.181 132.435 173.157 132.411L167.11 126.038L177.452 116.224L193.677 133.322L183.335 143.136L177.288 136.763C177.264 136.738 177.24 136.713 177.216 136.688L173.229 132.486Z" fill="#F50606" fill-opacity="0.16"/>
<path d="M206.801 206.12C203.377 206.407 200.397 204.219 200.147 201.233C199.896 198.246 202.468 195.591 205.892 195.304C209.317 195.016 212.296 197.204 212.547 200.191C212.798 203.178 210.225 205.832 206.801 206.12Z" fill="#F50606" fill-opacity="0.19"/>
<path d="M203.425 215.48C201.142 215.672 199.156 214.213 198.988 212.222C198.821 210.231 200.536 208.461 202.819 208.269C205.102 208.078 207.088 209.536 207.255 211.527C207.423 213.519 205.708 215.288 203.425 215.48Z" fill="#F50606" fill-opacity="0.19"/>
<path d="M188.352 209.485C192.918 209.101 196.348 205.562 196.013 201.58C195.679 197.598 191.706 194.68 187.141 195.064L180.94 195.585L182.152 210.006L188.352 209.485Z" fill="#F50606" fill-opacity="0.19"/>
<path d="M201.608 193.848C199.325 194.04 197.338 192.582 197.171 190.59C197.004 188.599 198.719 186.83 201.002 186.638C203.285 186.446 205.271 187.905 205.438 189.896C205.605 191.887 203.89 193.657 201.608 193.848Z" fill="#F50606" fill-opacity="0.19"/>
<path d="M182.455 213.611L188.655 213.09C190.833 212.907 192.84 212.245 194.547 211.235C194.71 211.656 194.816 212.103 194.855 212.569C195.106 215.556 192.534 218.21 189.109 218.498L182.909 219.019L182.455 213.611Z" fill="#F50606" fill-opacity="0.19"/>
<path d="M192.956 192.305C191.105 191.594 189.016 191.276 186.838 191.459L180.638 191.979L180.183 186.572L186.383 186.051C189.808 185.763 192.787 187.951 193.038 190.938C193.077 191.404 193.047 191.862 192.956 192.305Z" fill="#F50606" fill-opacity="0.19"/>
<path d="M125 201.209L177 167.604L125 134L73 167.604L125 201.209Z" fill="white"/>
<path d="M125 201.209L160.586 178.212C163.721 187.408 165.444 197.434 165.444 207.929C165.444 212.643 165.097 217.262 164.43 221.754C149.349 223.459 135.683 230.785 125 241.907C114.317 230.785 100.651 223.459 85.5703 221.754C84.9032 217.262 84.5556 212.642 84.5556 207.929C84.5556 197.434 86.2787 187.408 89.414 178.211L125 201.209Z" fill="white"/>
<path d="M125 201.209L177 167.604L125 134L73 167.604L125 201.209ZM125 201.209L160.586 178.212C163.721 187.408 165.444 197.434 165.444 207.929C165.444 212.643 165.097 217.262 164.43 221.754C149.349 223.459 135.683 230.785 125 241.907C114.317 230.785 100.651 223.459 85.5702 221.754C84.9032 217.262 84.5556 212.642 84.5556 207.929C84.5556 197.434 86.2787 187.408 89.414 178.211L125 201.209ZM101.889 241.533V191.128L125 176.192" stroke="black" stroke-width="6.59053" stroke-linecap="round" stroke-linejoin="round"/>
<path d="M89.6101 134.475C90.2752 129.767 94.5301 126.975 99.1136 128.24M97.6423 136.357L97.6545 136.349M82.5525 132.195C83.7618 123.635 91.4979 118.559 99.8317 120.857M75.0076 130.114C76.8214 117.274 88.4257 109.66 100.926 113.108" stroke="#F50606" stroke-opacity="0.19" stroke-width="5.59224" stroke-linecap="round" stroke-linejoin="round"/>
<path d="M192.159 180.455C190.123 180.455 188.362 179.981 186.875 179.034C185.388 178.078 184.238 176.757 183.423 175.071C182.618 173.376 182.216 171.425 182.216 169.219C182.216 167.022 182.618 165.071 183.423 163.366C184.238 161.652 185.36 160.312 186.79 159.347C188.229 158.371 189.891 157.884 191.776 157.884C192.959 157.884 194.1 158.101 195.199 158.537C196.297 158.963 197.282 159.621 198.153 160.511C199.034 161.392 199.73 162.505 200.241 163.849C200.753 165.185 201.009 166.766 201.009 168.594V169.844H183.963V167.614H198.423C198.423 166.212 198.139 164.953 197.571 163.835C197.012 162.708 196.231 161.818 195.227 161.165C194.233 160.511 193.082 160.185 191.776 160.185C190.393 160.185 189.176 160.554 188.125 161.293C187.074 162.031 186.25 163.007 185.653 164.219C185.066 165.431 184.768 166.757 184.759 168.196V169.531C184.759 171.264 185.057 172.779 185.653 174.077C186.259 175.365 187.116 176.364 188.224 177.074C189.332 177.784 190.644 178.139 192.159 178.139C193.191 178.139 194.096 177.978 194.872 177.656C195.658 177.334 196.316 176.903 196.847 176.364C197.386 175.814 197.794 175.213 198.068 174.56L200.469 175.341C200.137 176.259 199.593 177.107 198.835 177.884C198.087 178.66 197.15 179.285 196.023 179.759C194.905 180.223 193.617 180.455 192.159 180.455ZM214.435 180.455C212.646 180.455 211.078 179.981 209.734 179.034C208.389 178.087 207.338 176.766 206.58 175.071C205.832 173.376 205.458 171.402 205.458 169.148C205.458 166.903 205.832 164.938 206.58 163.253C207.338 161.558 208.394 160.241 209.748 159.304C211.102 158.357 212.679 157.884 214.478 157.884C215.804 157.884 216.907 158.12 217.788 158.594C218.668 159.058 219.374 159.635 219.904 160.327C220.434 161.018 220.846 161.69 221.14 162.344H221.367V150.909H223.91V180H221.438V175.952H221.14C220.846 176.615 220.43 177.296 219.89 177.997C219.35 178.688 218.635 179.271 217.745 179.744C216.864 180.218 215.761 180.455 214.435 180.455ZM214.734 178.139C216.145 178.139 217.347 177.756 218.342 176.989C219.336 176.212 220.094 175.147 220.614 173.793C221.145 172.429 221.41 170.866 221.41 169.105C221.41 167.363 221.149 165.824 220.629 164.489C220.108 163.144 219.35 162.093 218.356 161.335C217.362 160.568 216.154 160.185 214.734 160.185C213.275 160.185 212.044 160.582 211.04 161.378C210.046 162.164 209.289 163.229 208.768 164.574C208.256 165.919 208.001 167.429 208.001 169.105C208.001 170.8 208.261 172.33 208.782 173.693C209.303 175.057 210.06 176.141 211.055 176.946C212.058 177.741 213.285 178.139 214.734 178.139ZM244.975 171.662V158.182H247.504V180H244.975V176.378H244.776C244.265 177.495 243.455 178.428 242.347 179.176C241.239 179.915 239.885 180.284 238.285 180.284C236.893 180.284 235.657 179.981 234.577 179.375C233.498 178.759 232.65 177.86 232.035 176.676C231.419 175.492 231.112 174.039 231.112 172.315V158.182H233.64V172.159C233.64 173.864 234.142 175.237 235.146 176.278C236.149 177.311 237.437 177.827 239.009 177.827C239.994 177.827 240.941 177.59 241.85 177.116C242.759 176.643 243.507 175.952 244.094 175.043C244.682 174.124 244.975 172.997 244.975 171.662ZM250.93 153.295V150.909H272.024V153.295H262.805V180H260.149V153.295H250.93ZM283.136 180.455C281.1 180.455 279.338 179.981 277.852 179.034C276.365 178.078 275.214 176.757 274.4 175.071C273.595 173.376 273.192 171.425 273.192 169.219C273.192 167.022 273.595 165.071 274.4 163.366C275.214 161.652 276.336 160.312 277.766 159.347C279.206 158.371 280.868 157.884 282.752 157.884C283.936 157.884 285.077 158.101 286.175 158.537C287.274 158.963 288.259 159.621 289.13 160.511C290.011 161.392 290.707 162.505 291.218 163.849C291.729 165.185 291.985 166.766 291.985 168.594V169.844H274.94V167.614H289.4C289.4 166.212 289.116 164.953 288.548 163.835C287.989 162.708 287.208 161.818 286.204 161.165C285.21 160.511 284.059 160.185 282.752 160.185C281.37 160.185 280.153 160.554 279.102 161.293C278.05 162.031 277.227 163.007 276.63 164.219C276.043 165.431 275.745 166.757 275.735 168.196V169.531C275.735 171.264 276.033 172.779 276.63 174.077C277.236 175.365 278.093 176.364 279.201 177.074C280.309 177.784 281.621 178.139 283.136 178.139C284.168 178.139 285.072 177.978 285.849 177.656C286.635 177.334 287.293 176.903 287.823 176.364C288.363 175.814 288.77 175.213 289.045 174.56L291.445 175.341C291.114 176.259 290.569 177.107 289.812 177.884C289.064 178.66 288.126 179.285 286.999 179.759C285.882 180.223 284.594 180.455 283.136 180.455ZM306.08 180.455C304.129 180.455 302.429 179.967 300.98 178.991C299.541 178.016 298.423 176.681 297.628 174.986C296.832 173.291 296.435 171.359 296.435 169.19C296.435 167.003 296.837 165.057 297.642 163.352C298.456 161.648 299.583 160.312 301.023 159.347C302.462 158.371 304.134 157.884 306.037 157.884C307.495 157.884 308.816 158.168 310 158.736C311.184 159.295 312.159 160.085 312.926 161.108C313.703 162.121 314.19 163.305 314.389 164.659H311.832C311.567 163.428 310.928 162.377 309.915 161.506C308.911 160.625 307.633 160.185 306.08 160.185C304.688 160.185 303.456 160.563 302.386 161.321C301.316 162.069 300.478 163.116 299.872 164.46C299.276 165.795 298.977 167.344 298.977 169.105C298.977 170.876 299.271 172.443 299.858 173.807C300.445 175.161 301.269 176.222 302.33 176.989C303.4 177.756 304.65 178.139 306.08 178.139C307.045 178.139 307.926 177.959 308.722 177.599C309.527 177.23 310.199 176.709 310.739 176.037C311.288 175.365 311.657 174.564 311.847 173.636H314.403C314.214 174.953 313.745 176.127 312.997 177.159C312.259 178.182 311.297 178.987 310.114 179.574C308.939 180.161 307.595 180.455 306.08 180.455ZM322.351 166.364V180H319.822V150.909H322.351V161.605H322.578C323.089 160.478 323.88 159.579 324.95 158.906C326.03 158.234 327.393 157.898 329.041 157.898C330.518 157.898 331.816 158.201 332.933 158.807C334.051 159.413 334.922 160.308 335.547 161.491C336.172 162.675 336.484 164.134 336.484 165.866V180H333.942V166.023C333.942 164.223 333.44 162.808 332.436 161.776C331.442 160.734 330.097 160.213 328.402 160.213C327.237 160.213 326.2 160.459 325.291 160.952C324.382 161.444 323.662 162.154 323.132 163.082C322.611 164.001 322.351 165.095 322.351 166.364ZM351.665 180.455C349.715 180.455 348.015 179.967 346.566 178.991C345.127 178.016 344.009 176.681 343.214 174.986C342.418 173.291 342.021 171.359 342.021 169.19C342.021 167.003 342.423 165.057 343.228 163.352C344.042 161.648 345.169 160.312 346.609 159.347C348.048 158.371 349.719 157.884 351.623 157.884C353.081 157.884 354.402 158.168 355.586 158.736C356.77 159.295 357.745 160.085 358.512 161.108C359.289 162.121 359.776 163.305 359.975 164.659H357.418C357.153 163.428 356.514 162.377 355.501 161.506C354.497 160.625 353.219 160.185 351.665 160.185C350.273 160.185 349.042 160.563 347.972 161.321C346.902 162.069 346.064 163.116 345.458 164.46C344.862 165.795 344.563 167.344 344.563 169.105C344.563 170.876 344.857 172.443 345.444 173.807C346.031 175.161 346.855 176.222 347.915 176.989C348.986 177.756 350.236 178.139 351.665 178.139C352.631 178.139 353.512 177.959 354.308 177.599C355.112 177.23 355.785 176.709 356.325 176.037C356.874 175.365 357.243 174.564 357.433 173.636H359.989C359.8 174.953 359.331 176.127 358.583 177.159C357.844 178.182 356.883 178.987 355.7 179.574C354.525 180.161 353.181 180.455 351.665 180.455ZM373.888 180.455C372.004 180.455 370.337 179.976 368.888 179.02C367.449 178.063 366.322 176.742 365.508 175.057C364.693 173.362 364.286 171.406 364.286 169.19C364.286 166.955 364.693 164.991 365.508 163.295C366.322 161.591 367.449 160.265 368.888 159.318C370.337 158.362 372.004 157.884 373.888 157.884C375.773 157.884 377.435 158.362 378.874 159.318C380.314 160.275 381.441 161.6 382.255 163.295C383.079 164.991 383.491 166.955 383.491 169.19C383.491 171.406 383.084 173.362 382.269 175.057C381.455 176.742 380.323 178.063 378.874 179.02C377.435 179.976 375.773 180.455 373.888 180.455ZM373.888 178.139C375.404 178.139 376.687 177.732 377.738 176.918C378.789 176.103 379.585 175.019 380.124 173.665C380.674 172.311 380.948 170.819 380.948 169.19C380.948 167.562 380.674 166.065 380.124 164.702C379.585 163.338 378.789 162.244 377.738 161.42C376.687 160.597 375.404 160.185 373.888 160.185C372.383 160.185 371.1 160.597 370.039 161.42C368.988 162.244 368.188 163.338 367.638 164.702C367.099 166.065 366.829 167.562 366.829 169.19C366.829 170.819 367.099 172.311 367.638 173.665C368.188 175.019 368.988 176.103 370.039 176.918C371.09 177.732 372.373 178.139 373.888 178.139ZM391.57 166.364V180H389.041V158.182H391.499V161.605H391.726C392.237 160.488 393.033 159.593 394.112 158.92C395.201 158.239 396.546 157.898 398.146 157.898C399.614 157.898 400.902 158.205 402.01 158.821C403.127 159.427 403.994 160.322 404.609 161.506C405.234 162.689 405.547 164.143 405.547 165.866V180H403.018V166.023C403.018 164.233 402.517 162.817 401.513 161.776C400.518 160.734 399.183 160.213 397.507 160.213C396.361 160.213 395.343 160.459 394.453 160.952C393.563 161.444 392.857 162.154 392.337 163.082C391.825 164.001 391.57 165.095 391.57 166.364ZM414.734 166.364V180H412.205V158.182H414.663V161.605H414.89C415.401 160.488 416.197 159.593 417.276 158.92C418.365 158.239 419.71 157.898 421.31 157.898C422.778 157.898 424.066 158.205 425.174 158.821C426.291 159.427 427.158 160.322 427.773 161.506C428.398 162.689 428.711 164.143 428.711 165.866V180H426.183V166.023C426.183 164.233 425.681 162.817 424.677 161.776C423.683 160.734 422.347 160.213 420.671 160.213C419.525 160.213 418.507 160.459 417.617 160.952C416.727 161.444 416.022 162.154 415.501 163.082C414.989 164.001 414.734 165.095 414.734 166.364ZM444.19 180.455C442.154 180.455 440.393 179.981 438.906 179.034C437.42 178.078 436.269 176.757 435.455 175.071C434.65 173.376 434.247 171.425 434.247 169.219C434.247 167.022 434.65 165.071 435.455 163.366C436.269 161.652 437.391 160.312 438.821 159.347C440.26 158.371 441.922 157.884 443.807 157.884C444.991 157.884 446.132 158.101 447.23 158.537C448.329 158.963 449.313 159.621 450.185 160.511C451.065 161.392 451.761 162.505 452.273 163.849C452.784 165.185 453.04 166.766 453.04 168.594V169.844H435.994V167.614H450.455C450.455 166.212 450.17 164.953 449.602 163.835C449.044 162.708 448.262 161.818 447.259 161.165C446.264 160.511 445.114 160.185 443.807 160.185C442.424 160.185 441.207 160.554 440.156 161.293C439.105 162.031 438.281 163.007 437.685 164.219C437.098 165.431 436.799 166.757 436.79 168.196V169.531C436.79 171.264 437.088 172.779 437.685 174.077C438.291 175.365 439.148 176.364 440.256 177.074C441.364 177.784 442.675 178.139 444.19 178.139C445.223 178.139 446.127 177.978 446.903 177.656C447.689 177.334 448.348 176.903 448.878 176.364C449.418 175.814 449.825 175.213 450.099 174.56L452.5 175.341C452.169 176.259 451.624 177.107 450.866 177.884C450.118 178.66 449.181 179.285 448.054 179.759C446.937 180.223 445.649 180.455 444.19 180.455ZM467.134 180.455C465.183 180.455 463.484 179.967 462.035 178.991C460.595 178.016 459.478 176.681 458.683 174.986C457.887 173.291 457.489 171.359 457.489 169.19C457.489 167.003 457.892 165.057 458.697 163.352C459.511 161.648 460.638 160.312 462.077 159.347C463.517 158.371 465.188 157.884 467.092 157.884C468.55 157.884 469.871 158.168 471.055 158.736C472.238 159.295 473.214 160.085 473.981 161.108C474.757 162.121 475.245 163.305 475.444 164.659H472.887C472.622 163.428 471.983 162.377 470.969 161.506C469.966 160.625 468.687 160.185 467.134 160.185C465.742 160.185 464.511 160.563 463.441 161.321C462.371 162.069 461.533 163.116 460.927 164.46C460.33 165.795 460.032 167.344 460.032 169.105C460.032 170.876 460.326 172.443 460.913 173.807C461.5 175.161 462.324 176.222 463.384 176.989C464.454 177.756 465.704 178.139 467.134 178.139C468.1 178.139 468.981 177.959 469.776 177.599C470.581 177.23 471.254 176.709 471.793 176.037C472.343 175.365 472.712 174.564 472.901 173.636H475.458C475.269 174.953 474.8 176.127 474.052 177.159C473.313 178.182 472.352 178.987 471.168 179.574C469.994 180.161 468.649 180.455 467.134 180.455ZM489.471 158.182V160.384H479.059V158.182H489.471ZM482.312 152.955H484.854V174.304C484.854 175.213 485.011 175.928 485.323 176.449C485.636 176.96 486.043 177.325 486.545 177.543C487.047 177.751 487.582 177.855 488.15 177.855C488.481 177.855 488.765 177.836 489.002 177.798C489.239 177.751 489.447 177.704 489.627 177.656L490.167 179.943C489.921 180.038 489.618 180.123 489.258 180.199C488.898 180.284 488.453 180.327 487.923 180.327C486.995 180.327 486.1 180.123 485.238 179.716C484.386 179.309 483.685 178.703 483.136 177.898C482.586 177.093 482.312 176.094 482.312 174.901V152.955Z" fill="black"/>
</svg>
