<svg width="596" height="378" viewBox="0 0 596 378" fill="none" xmlns="http://www.w3.org/2000/svg">
<g clip-path="url(#clip0_39_32)">
<rect width="596" height="378" fill="white"/>
<mask id="mask0_39_32" style="mask-type:luminance" maskUnits="userSpaceOnUse" x="153" y="108" width="89" height="99">
<path d="M242 108H153V207H242V108Z" fill="white"/>
</mask>
<g mask="url(#mask0_39_32)">
<path d="M230.669 162.163C229.84 162.171 229.027 161.899 228.335 161.384C227.643 160.868 227.102 160.131 226.782 159.267C226.461 158.403 226.376 157.451 226.536 156.532C226.696 155.613 227.095 154.768 227.681 154.106C228.267 153.444 229.015 152.993 229.828 152.813C230.642 152.632 231.485 152.728 232.249 153.09C233.014 153.452 233.666 154.063 234.123 154.845C234.579 155.627 234.819 156.545 234.813 157.482C234.804 158.72 234.364 159.905 233.589 160.781C232.814 161.656 231.765 162.153 230.669 162.163ZM190.25 140.368C191.078 140.36 191.889 140.63 192.58 141.144C193.272 141.658 193.812 142.393 194.134 143.255C194.455 144.116 194.543 145.066 194.386 145.984C194.228 146.903 193.833 147.747 193.25 148.411C192.667 149.075 191.923 149.528 191.112 149.713C190.3 149.899 189.459 149.808 188.693 149.451C187.928 149.095 187.273 148.491 186.813 147.714C186.352 146.937 186.106 146.022 186.106 145.087C186.106 143.842 186.542 142.648 187.318 141.763C188.094 140.879 189.148 140.378 190.25 140.368ZM164.912 127.973C165.73 127.981 166.528 128.262 167.205 128.781C167.882 129.3 168.407 130.034 168.716 130.89C169.024 131.746 169.101 132.686 168.938 133.591C168.774 134.497 168.377 135.328 167.796 135.978C167.215 136.629 166.477 137.071 165.674 137.249C164.871 137.427 164.04 137.332 163.284 136.976C162.529 136.621 161.884 136.021 161.43 135.252C160.976 134.483 160.734 133.579 160.734 132.655C160.734 132.037 160.842 131.425 161.053 130.854C161.263 130.284 161.571 129.766 161.96 129.331C162.348 128.896 162.809 128.552 163.316 128.319C163.822 128.086 164.365 127.968 164.912 127.973ZM212.192 115.618C213.02 115.61 213.83 115.88 214.522 116.394C215.213 116.908 215.754 117.643 216.076 118.505C216.397 119.366 216.485 120.316 216.327 121.235C216.17 122.153 215.775 122.997 215.192 123.661C214.609 124.325 213.865 124.778 213.053 124.963C212.242 125.149 211.4 125.058 210.635 124.701C209.87 124.345 209.215 123.741 208.754 122.964C208.294 122.187 208.048 121.273 208.048 120.337C208.048 119.092 208.483 117.898 209.26 117.014C210.036 116.13 211.089 115.628 212.192 115.618ZM241.572 157.482C241.578 155.205 241.025 152.97 239.976 151.027C238.925 149.083 237.419 147.506 235.624 146.472C233.829 145.437 231.815 144.984 229.805 145.165C227.796 145.345 225.871 146.151 224.242 147.493C222.614 148.835 221.347 150.661 220.582 152.768C219.817 154.874 219.584 157.179 219.908 159.426C220.233 161.674 221.102 163.775 222.42 165.498C223.738 167.221 225.453 168.497 227.374 169.185V175.478C227.374 176.607 227.177 177.725 226.795 178.767C226.413 179.81 225.852 180.758 225.146 181.556C224.439 182.354 223.601 182.987 222.678 183.419C221.754 183.851 220.765 184.073 219.766 184.073H215.724C211.39 184.066 207.201 185.839 203.938 189.062C202.999 184.759 201.105 180.797 198.436 177.55C203.049 177.4 207.429 175.224 210.645 171.484C213.86 167.744 215.658 162.734 215.656 157.52V132.079C218.121 131.166 220.216 129.291 221.567 126.79C222.918 124.289 223.435 121.325 223.026 118.432C222.617 115.539 221.308 112.905 219.335 111.003C217.362 109.102 214.853 108.057 212.26 108.057C209.666 108.057 207.157 109.102 205.184 111.003C203.211 112.905 201.902 115.539 201.493 118.432C201.084 121.325 201.602 124.289 202.952 126.79C204.303 129.291 206.399 131.166 208.863 132.079V157.405C208.863 160.702 207.704 163.864 205.64 166.196C203.576 168.528 200.777 169.837 197.858 169.837H191.439C192.874 167.279 193.628 164.309 193.613 161.28V156.791C196.077 155.878 198.173 154.003 199.524 151.501C200.874 149 201.392 146.037 200.983 143.143C200.573 140.25 199.265 137.616 197.292 135.715C195.318 133.813 192.81 132.769 190.216 132.769C187.623 132.769 185.114 133.813 183.141 135.715C181.168 137.616 179.859 140.25 179.45 143.143C179.041 146.037 179.558 149 180.909 151.501C182.259 154.003 184.355 155.878 186.819 156.791V161.28C186.821 163.498 186.06 165.629 184.698 167.225C183.336 168.821 181.478 169.758 179.517 169.837C176.583 169.817 173.776 168.486 171.707 166.135C169.639 163.784 168.478 160.604 168.478 157.29V144.358C170.943 143.446 173.038 141.57 174.389 139.069C175.74 136.568 176.257 133.604 175.848 130.711C175.439 127.818 174.13 125.184 172.157 123.282C170.184 121.381 167.675 120.336 165.082 120.336C162.488 120.336 159.98 121.381 158.006 123.282C156.033 125.184 154.724 127.818 154.315 130.711C153.906 133.604 154.423 136.568 155.774 139.069C157.125 141.57 159.221 143.446 161.685 144.358V157.251C161.694 162.575 163.56 167.68 166.88 171.458C170.199 175.237 174.703 177.385 179.415 177.435H183.457C185.389 177.462 187.294 177.947 189.05 178.86C190.805 179.772 192.371 181.091 193.647 182.73C196.411 186.033 197.974 190.388 198.028 194.933V206.943H204.821V204.219C204.821 200.881 205.995 197.679 208.084 195.319C210.173 192.959 213.007 191.633 215.962 191.633H220.004C223.805 191.633 227.451 189.927 230.139 186.89C232.827 183.853 234.337 179.734 234.337 175.44V169.147C236.487 168.342 238.361 166.801 239.7 164.738C241.039 162.676 241.776 160.193 241.81 157.635" fill="url(#paint0_linear_39_32)"/>
</g>
<path d="M113.443 242V207.091H136.148V212.392H119.767V221.869H134.972V227.17H119.767V236.699H136.284V242H113.443ZM152.043 242.46C149.986 242.46 148.145 241.932 146.52 240.875C144.895 239.818 143.611 238.284 142.668 236.273C141.724 234.261 141.253 231.818 141.253 228.943C141.253 226.034 141.73 223.58 142.685 221.58C143.651 219.568 144.952 218.051 146.588 217.028C148.224 215.994 150.048 215.477 152.06 215.477C153.594 215.477 154.855 215.739 155.844 216.261C156.832 216.773 157.616 217.392 158.196 218.119C158.776 218.835 159.224 219.511 159.543 220.148H159.798V207.091H165.986V242H159.918V237.875H159.543C159.224 238.511 158.764 239.187 158.162 239.903C157.56 240.608 156.764 241.21 155.776 241.71C154.787 242.21 153.543 242.46 152.043 242.46ZM153.764 237.398C155.071 237.398 156.185 237.045 157.105 236.341C158.026 235.625 158.724 234.631 159.202 233.358C159.679 232.085 159.918 230.602 159.918 228.909C159.918 227.216 159.679 225.744 159.202 224.494C158.736 223.244 158.043 222.273 157.122 221.58C156.213 220.886 155.094 220.54 153.764 220.54C152.389 220.54 151.241 220.898 150.321 221.614C149.401 222.33 148.707 223.318 148.241 224.58C147.776 225.841 147.543 227.284 147.543 228.909C147.543 230.545 147.776 232.006 148.241 233.29C148.719 234.562 149.418 235.568 150.338 236.307C151.27 237.034 152.412 237.398 153.764 237.398ZM189.249 230.989V215.818H195.419V242H189.436V237.347H189.163C188.572 238.812 187.601 240.011 186.249 240.943C184.908 241.875 183.254 242.341 181.288 242.341C179.572 242.341 178.055 241.96 176.737 241.199C175.43 240.426 174.408 239.307 173.669 237.841C172.93 236.364 172.561 234.58 172.561 232.489V215.818H178.732V231.534C178.732 233.193 179.186 234.511 180.095 235.489C181.004 236.466 182.197 236.955 183.675 236.955C184.584 236.955 185.464 236.733 186.317 236.29C187.169 235.847 187.868 235.188 188.413 234.312C188.97 233.426 189.249 232.318 189.249 230.989ZM198.065 212.392V207.091H225.918V212.392H215.128V242H208.855V212.392H198.065ZM238.808 242.511C236.183 242.511 233.916 241.966 232.007 240.875C230.109 239.773 228.649 238.216 227.626 236.205C226.604 234.182 226.092 231.801 226.092 229.062C226.092 226.369 226.604 224.006 227.626 221.972C228.661 219.926 230.104 218.335 231.956 217.199C233.808 216.051 235.984 215.477 238.484 215.477C240.098 215.477 241.621 215.739 243.053 216.261C244.496 216.773 245.768 217.568 246.871 218.648C247.984 219.727 248.859 221.102 249.496 222.773C250.132 224.432 250.45 226.409 250.45 228.705V230.597H228.99V226.438H244.536C244.524 225.256 244.268 224.205 243.768 223.284C243.268 222.352 242.57 221.619 241.672 221.085C240.786 220.551 239.751 220.284 238.57 220.284C237.308 220.284 236.2 220.591 235.246 221.205C234.291 221.807 233.547 222.602 233.013 223.591C232.49 224.568 232.223 225.642 232.212 226.812V230.443C232.212 231.966 232.49 233.273 233.047 234.364C233.604 235.443 234.382 236.273 235.382 236.852C236.382 237.42 237.553 237.705 238.893 237.705C239.791 237.705 240.604 237.58 241.331 237.33C242.058 237.068 242.689 236.688 243.223 236.188C243.757 235.688 244.161 235.068 244.433 234.33L250.195 234.977C249.831 236.5 249.138 237.83 248.115 238.966C247.104 240.091 245.808 240.966 244.229 241.591C242.649 242.205 240.842 242.511 238.808 242.511ZM267.091 242.511C264.477 242.511 262.233 241.938 260.358 240.79C258.494 239.642 257.057 238.057 256.045 236.034C255.045 234 254.545 231.659 254.545 229.011C254.545 226.352 255.057 224.006 256.08 221.972C257.102 219.926 258.545 218.335 260.409 217.199C262.284 216.051 264.5 215.477 267.057 215.477C269.182 215.477 271.063 215.869 272.699 216.653C274.347 217.426 275.659 218.523 276.636 219.943C277.614 221.352 278.17 223 278.307 224.886H272.409C272.17 223.625 271.602 222.574 270.705 221.733C269.818 220.881 268.631 220.455 267.142 220.455C265.881 220.455 264.773 220.795 263.818 221.477C262.864 222.148 262.119 223.114 261.585 224.375C261.063 225.636 260.801 227.148 260.801 228.909C260.801 230.693 261.063 232.227 261.585 233.511C262.108 234.784 262.841 235.767 263.784 236.46C264.739 237.142 265.858 237.483 267.142 237.483C268.051 237.483 268.864 237.312 269.58 236.972C270.307 236.619 270.915 236.114 271.403 235.455C271.892 234.795 272.227 233.994 272.409 233.051H278.307C278.159 234.903 277.614 236.545 276.67 237.977C275.727 239.398 274.443 240.511 272.818 241.318C271.193 242.114 269.284 242.511 267.091 242.511ZM289.544 226.659V242H283.374V207.091H289.408V220.267H289.714C290.328 218.79 291.277 217.625 292.561 216.773C293.857 215.909 295.504 215.477 297.504 215.477C299.322 215.477 300.908 215.858 302.26 216.619C303.612 217.381 304.658 218.494 305.396 219.96C306.146 221.426 306.521 223.216 306.521 225.33V242H300.351V226.284C300.351 224.523 299.896 223.153 298.987 222.176C298.089 221.187 296.828 220.693 295.203 220.693C294.112 220.693 293.135 220.932 292.271 221.409C291.419 221.875 290.749 222.551 290.26 223.438C289.783 224.324 289.544 225.398 289.544 226.659ZM342.964 218.869H336.589C336.408 217.824 336.072 216.898 335.584 216.091C335.095 215.273 334.487 214.58 333.76 214.011C333.033 213.443 332.203 213.017 331.271 212.733C330.351 212.438 329.357 212.29 328.288 212.29C326.391 212.29 324.709 212.767 323.243 213.722C321.777 214.665 320.629 216.051 319.8 217.881C318.97 219.699 318.555 221.92 318.555 224.545C318.555 227.216 318.97 229.466 319.8 231.295C320.641 233.114 321.788 234.489 323.243 235.42C324.709 236.341 326.385 236.801 328.271 236.801C329.317 236.801 330.294 236.665 331.203 236.392C332.124 236.108 332.947 235.693 333.675 235.148C334.413 234.602 335.033 233.932 335.533 233.136C336.044 232.341 336.396 231.432 336.589 230.409L342.964 230.443C342.726 232.102 342.209 233.659 341.413 235.114C340.629 236.568 339.601 237.852 338.328 238.966C337.055 240.068 335.567 240.932 333.862 241.557C332.158 242.17 330.266 242.477 328.186 242.477C325.118 242.477 322.379 241.767 319.97 240.347C317.561 238.926 315.663 236.875 314.277 234.193C312.891 231.511 312.197 228.295 312.197 224.545C312.197 220.784 312.896 217.568 314.294 214.898C315.692 212.216 317.595 210.165 320.004 208.744C322.413 207.324 325.141 206.614 328.186 206.614C330.129 206.614 331.936 206.886 333.607 207.432C335.277 207.977 336.766 208.778 338.072 209.835C339.379 210.881 340.453 212.165 341.294 213.688C342.146 215.199 342.703 216.926 342.964 218.869ZM359.903 242.511C357.347 242.511 355.131 241.949 353.256 240.824C351.381 239.699 349.926 238.125 348.892 236.102C347.869 234.08 347.358 231.716 347.358 229.011C347.358 226.307 347.869 223.937 348.892 221.903C349.926 219.869 351.381 218.29 353.256 217.165C355.131 216.04 357.347 215.477 359.903 215.477C362.46 215.477 364.676 216.04 366.551 217.165C368.426 218.29 369.875 219.869 370.898 221.903C371.932 223.937 372.449 226.307 372.449 229.011C372.449 231.716 371.932 234.08 370.898 236.102C369.875 238.125 368.426 239.699 366.551 240.824C364.676 241.949 362.46 242.511 359.903 242.511ZM359.938 237.568C361.324 237.568 362.483 237.187 363.415 236.426C364.347 235.653 365.04 234.619 365.494 233.324C365.96 232.028 366.193 230.585 366.193 228.994C366.193 227.392 365.96 225.943 365.494 224.648C365.04 223.341 364.347 222.301 363.415 221.528C362.483 220.756 361.324 220.369 359.938 220.369C358.517 220.369 357.335 220.756 356.392 221.528C355.46 222.301 354.761 223.341 354.295 224.648C353.841 225.943 353.614 227.392 353.614 228.994C353.614 230.585 353.841 232.028 354.295 233.324C354.761 234.619 355.46 235.653 356.392 236.426C357.335 237.187 358.517 237.568 359.938 237.568ZM383.857 226.659V242H377.686V215.818H383.584V220.267H383.891C384.493 218.801 385.453 217.636 386.771 216.773C388.101 215.909 389.743 215.477 391.697 215.477C393.504 215.477 395.078 215.864 396.419 216.636C397.771 217.409 398.817 218.528 399.555 219.994C400.305 221.46 400.675 223.239 400.663 225.33V242H394.493V226.284C394.493 224.534 394.038 223.165 393.129 222.176C392.232 221.187 390.987 220.693 389.396 220.693C388.317 220.693 387.357 220.932 386.516 221.409C385.686 221.875 385.033 222.551 384.555 223.438C384.089 224.324 383.857 225.398 383.857 226.659ZM413.107 226.659V242H406.936V215.818H412.834V220.267H413.141C413.743 218.801 414.703 217.636 416.021 216.773C417.351 215.909 418.993 215.477 420.947 215.477C422.754 215.477 424.328 215.864 425.669 216.636C427.021 217.409 428.067 218.528 428.805 219.994C429.555 221.46 429.925 223.239 429.913 225.33V242H423.743V226.284C423.743 224.534 423.288 223.165 422.379 222.176C421.482 221.187 420.237 220.693 418.646 220.693C417.567 220.693 416.607 220.932 415.766 221.409C414.936 221.875 414.283 222.551 413.805 223.438C413.339 224.324 413.107 225.398 413.107 226.659ZM447.777 242.511C445.152 242.511 442.885 241.966 440.976 240.875C439.078 239.773 437.618 238.216 436.595 236.205C435.572 234.182 435.061 231.801 435.061 229.062C435.061 226.369 435.572 224.006 436.595 221.972C437.629 219.926 439.072 218.335 440.925 217.199C442.777 216.051 444.953 215.477 447.453 215.477C449.067 215.477 450.589 215.739 452.021 216.261C453.464 216.773 454.737 217.568 455.839 218.648C456.953 219.727 457.828 221.102 458.464 222.773C459.101 224.432 459.419 226.409 459.419 228.705V230.597H437.959V226.438H453.504C453.493 225.256 453.237 224.205 452.737 223.284C452.237 222.352 451.538 221.619 450.641 221.085C449.754 220.551 448.72 220.284 447.538 220.284C446.277 220.284 445.169 220.591 444.214 221.205C443.26 221.807 442.516 222.602 441.982 223.591C441.459 224.568 441.192 225.642 441.18 226.812V230.443C441.18 231.966 441.459 233.273 442.016 234.364C442.572 235.443 443.351 236.273 444.351 236.852C445.351 237.42 446.521 237.705 447.862 237.705C448.76 237.705 449.572 237.58 450.3 237.33C451.027 237.068 451.658 236.688 452.192 236.188C452.726 235.688 453.129 235.068 453.402 234.33L459.163 234.977C458.8 236.5 458.107 237.83 457.084 238.966C456.072 240.091 454.777 240.966 453.197 241.591C451.618 242.205 449.811 242.511 447.777 242.511ZM476.06 242.511C473.446 242.511 471.202 241.938 469.327 240.79C467.463 239.642 466.026 238.057 465.014 236.034C464.014 234 463.514 231.659 463.514 229.011C463.514 226.352 464.026 224.006 465.048 221.972C466.071 219.926 467.514 218.335 469.378 217.199C471.253 216.051 473.469 215.477 476.026 215.477C478.151 215.477 480.031 215.869 481.668 216.653C483.315 217.426 484.628 218.523 485.605 219.943C486.582 221.352 487.139 223 487.276 224.886H481.378C481.139 223.625 480.571 222.574 479.673 221.733C478.787 220.881 477.599 220.455 476.111 220.455C474.849 220.455 473.741 220.795 472.787 221.477C471.832 222.148 471.088 223.114 470.554 224.375C470.031 225.636 469.77 227.148 469.77 228.909C469.77 230.693 470.031 232.227 470.554 233.511C471.077 234.784 471.81 235.767 472.753 236.46C473.707 237.142 474.827 237.483 476.111 237.483C477.02 237.483 477.832 237.312 478.548 236.972C479.276 236.619 479.884 236.114 480.372 235.455C480.861 234.795 481.196 233.994 481.378 233.051H487.276C487.128 234.903 486.582 236.545 485.639 237.977C484.696 239.398 483.412 240.511 481.787 241.318C480.162 242.114 478.253 242.511 476.06 242.511ZM505.416 215.818V220.591H490.365V215.818H505.416ZM494.081 209.545H500.251V234.125C500.251 234.955 500.376 235.591 500.626 236.034C500.888 236.466 501.229 236.761 501.649 236.92C502.07 237.08 502.536 237.159 503.047 237.159C503.433 237.159 503.786 237.131 504.104 237.074C504.433 237.017 504.683 236.966 504.854 236.92L505.893 241.744C505.564 241.858 505.092 241.983 504.479 242.119C503.876 242.256 503.138 242.335 502.263 242.358C500.717 242.403 499.325 242.17 498.087 241.659C496.848 241.136 495.865 240.33 495.138 239.239C494.422 238.148 494.07 236.784 494.081 235.148V209.545Z" fill="url(#paint1_linear_39_32)"/>
<g clip-path="url(#clip1_39_32)">
<path d="M179.219 107.606C181.384 107.606 183.528 107.606 185.694 107.606C185.694 104.822 185.694 102.066 185.694 99.2812H179.219V107.606Z" fill="#04D500" fill-opacity="0.69"/>
<path d="M192.781 107.606C192.781 104.822 192.781 102.066 192.781 99.2812H186.306C186.306 102.066 186.306 104.822 186.306 107.606C188.472 107.606 190.615 107.606 192.781 107.606Z" fill="#04D500" fill-opacity="0.69"/>
<path d="M179 117.325H185.475C185.475 114.541 185.475 111.784 185.475 109C183.309 109 181.166 109 179 109V117.325Z" fill="#04D500" fill-opacity="0.69"/>
<path d="M186.306 116.719H192.781C192.781 113.934 192.781 111.178 192.781 108.394C190.615 108.394 188.472 108.394 186.306 108.394C186.306 111.178 186.306 113.934 186.306 116.719Z" fill="#04D500" fill-opacity="0.69"/>
</g>
<path d="M239.14 136.303C239 136.303 238.887 136.275 238.775 136.219L236.525 135.319C236.187 135.178 235.962 134.897 235.906 134.559L235.653 133.153C235.597 132.816 235.822 132.478 236.159 132.422C236.497 132.366 236.834 132.591 236.89 132.928L237.115 134.194L239.14 135.009L241.165 134.166L241.672 131.663H236.384C235.906 131.663 235.484 131.325 235.4 130.819L235.006 128.569C234.95 128.259 235.034 127.922 235.231 127.669L235.259 127.641C235.484 127.416 235.765 127.275 236.103 127.275H242.628C242.965 127.275 243.275 127.556 243.275 127.922C243.275 128.288 242.993 128.569 242.628 128.569H236.272L236.609 130.425H242.009C242.318 130.425 242.6 130.566 242.797 130.791C242.993 131.016 243.078 131.325 242.993 131.634L242.403 134.531C242.347 134.869 242.122 135.15 241.812 135.263L239.562 136.191C239.422 136.275 239.281 136.303 239.14 136.303Z" fill="#04D500"/>
<path d="M239 140.494C238.831 140.494 238.663 140.466 238.494 140.437L234.05 139.397C233.178 139.2 232.503 138.441 232.391 137.541L231.013 125.925C230.956 125.306 231.153 124.687 231.547 124.209C231.969 123.759 232.559 123.506 233.178 123.506H244.822C245.441 123.506 246.031 123.759 246.453 124.237C246.875 124.687 247.072 125.334 246.988 125.925L245.609 137.541C245.497 138.441 244.822 139.2 243.95 139.397L239.506 140.437C239.337 140.494 239.169 140.494 239 140.494ZM233.178 124.772C232.925 124.772 232.672 124.884 232.503 125.081C232.334 125.25 232.25 125.503 232.278 125.784L233.656 137.4C233.712 137.766 233.966 138.075 234.359 138.187L238.803 139.228C238.944 139.256 239.084 139.256 239.225 139.228L243.641 138.187C244.006 138.103 244.287 137.794 244.344 137.4L245.722 125.784C245.75 125.503 245.666 125.25 245.497 125.053C245.328 124.856 245.075 124.744 244.822 124.744H233.178V124.772Z" fill="#04D500"/>
<path d="M134 151L135.704 170.326L143.375 172.875L151.046 170.326L152.75 151H134ZM149.288 154.906L149.054 157.216L143.424 159.623L143.409 159.628H148.854L148.229 166.786L143.434 168.188L138.609 166.762L138.297 163.153H140.685L140.841 165.023L143.409 165.673L146.08 164.921L146.261 161.913L138.141 161.889V161.884L138.131 161.889L137.955 159.628L143.429 157.348L143.746 157.216H137.745L137.462 154.906H149.288Z" fill="#04D500"/>
</g>
<defs>
<linearGradient id="paint0_linear_39_32" x1="197.994" y1="108.057" x2="197.994" y2="206.943" gradientUnits="userSpaceOnUse">
<stop offset="0.567708"/>
<stop offset="1" stop-color="#459E5E" stop-opacity="0"/>
</linearGradient>
<linearGradient id="paint1_linear_39_32" x1="309" y1="196" x2="309" y2="254" gradientUnits="userSpaceOnUse">
<stop offset="0.348958" stop-color="#04D500"/>
<stop offset="1" stop-opacity="0"/>
</linearGradient>
<clipPath id="clip0_39_32">
<rect width="596" height="378" fill="white"/>
</clipPath>
<clipPath id="clip1_39_32">
<rect width="14" height="18" fill="white" transform="translate(179 99)"/>
</clipPath>
</defs>
</svg>
